<?xml version="1.0" encoding="UTF-8" standalone="no"?>
<!-- Created with Inkscape (http://www.inkscape.org/) -->

<svg
   xmlns:dc="http://purl.org/dc/elements/1.1/"
   xmlns:cc="http://creativecommons.org/ns#"
   xmlns:rdf="http://www.w3.org/1999/02/22-rdf-syntax-ns#"
   xmlns:svg="http://www.w3.org/2000/svg"
   xmlns="http://www.w3.org/2000/svg"
   xmlns:sodipodi="http://sodipodi.sourceforge.net/DTD/sodipodi-0.dtd"
   xmlns:inkscape="http://www.inkscape.org/namespaces/inkscape"
   width="16"
   height="16"
   id="svg2"
   version="1.1"
   inkscape:version="0.48.3.1 r9886"
   sodipodi:docname="lang.svg"
   inkscape:export-filename="/home/zxz/Bureau/cplang.png"
   inkscape:export-xdpi="45"
   inkscape:export-ydpi="45">
  <defs
     id="defs4" />
  <sodipodi:namedview
     id="base"
     pagecolor="#ffffff"
     bordercolor="#666666"
     borderopacity="1.0"
     inkscape:pageopacity="0.0"
     inkscape:pageshadow="2"
     inkscape:zoom="16"
     inkscape:cx="-19.680378"
     inkscape:cy="0.51624638"
     inkscape:document-units="px"
     inkscape:current-layer="layer1"
     showgrid="false"
     inkscape:window-width="1680"
     inkscape:window-height="1026"
     inkscape:window-x="0"
     inkscape:window-y="24"
     inkscape:window-maximized="1" />
  <metadata
     id="metadata7">
    <rdf:RDF>
      <cc:Work
         rdf:about="">
        <dc:format>image/svg+xml</dc:format>
        <dc:type
           rdf:resource="http://purl.org/dc/dcmitype/StillImage" />
        <dc:title />
      </cc:Work>
    </rdf:RDF>
  </metadata>
  <g
     inkscape:label="Calque 1"
     inkscape:groupmode="layer"
     id="layer1"
     transform="translate(0,-1036.3622)">
    <path
       style="fill:#000000;fill-opacity:1;stroke:#000000;stroke-width:0.1483918;stroke-linecap:round;stroke-linejoin:round;stroke-miterlimit:4;stroke-opacity:1;stroke-dasharray:none"
       d="m 3.0079408,1051.13 0.3921515,0 0.011178,-12.9695 c 0,0 0.011848,-0.192 -0.1987392,-0.1903 -0.210586,0 -0.1987388,0.1903 -0.1987388,0.1903 0.033842,4.2448 0.03264,8.7228 -0.00585,12.9695 z"
       id="path2987"
       inkscape:connector-curvature="0"
       sodipodi:nodetypes="ccczcc" />
    <path
       style="fill:#000000;fill-opacity:1;stroke:#000000;stroke-width:0.16541184px;stroke-linecap:round;stroke-linejoin:round;stroke-opacity:1"
       d="m 6.0824654,1038.0581 c -0.8655508,0 -2.5504838,0.5056 -2.5504838,0.5056 l 0,6.1118 c 0,0 1.6849334,-0.5008 2.5504838,-0.5008 0.8655512,0 1.7048033,0.2497 2.5458467,0.5008 0.8410433,0.2511 1.6802949,0.5054 2.5458459,0.5054 0.865553,0 2.550485,-0.5054 2.550485,-0.5054 l 0,-6.1118 c 0,0 -1.684933,0.5008 -2.550485,0.5008 -1.7311013,0 -3.3605906,-1.0064 -5.0916926,-1.0064 z"
       id="path3757"
       inkscape:connector-curvature="0" />
  </g>
</svg>
