<?xml version="1.0" encoding="UTF-8" standalone="no"?>
<!-- Created with Inkscape (http://www.inkscape.org/) -->

<svg
   xmlns:dc="http://purl.org/dc/elements/1.1/"
   xmlns:cc="http://creativecommons.org/ns#"
   xmlns:rdf="http://www.w3.org/1999/02/22-rdf-syntax-ns#"
   xmlns:svg="http://www.w3.org/2000/svg"
   xmlns="http://www.w3.org/2000/svg"
   xmlns:sodipodi="http://sodipodi.sourceforge.net/DTD/sodipodi-0.dtd"
   xmlns:inkscape="http://www.inkscape.org/namespaces/inkscape"
   width="100"
   height="100"
   id="svg2984"
   version="1.1"
   inkscape:version="0.48.3.1 r9886"
   sodipodi:docname="wallet-online.svg"
   inkscape:export-filename="/media/X/bitcoin.org/bitcoin.org/img/icon-wallet-online.png"
   inkscape:export-xdpi="28.799999"
   inkscape:export-ydpi="28.799999">
  <defs
     id="defs2986" />
  <sodipodi:namedview
     id="base"
     pagecolor="#ffffff"
     bordercolor="#666666"
     borderopacity="1.0"
     inkscape:pageopacity="0.0"
     inkscape:pageshadow="2"
     inkscape:zoom="3.959798"
     inkscape:cx="-47.101155"
     inkscape:cy="47.894698"
     inkscape:document-units="px"
     inkscape:current-layer="layer1"
     showgrid="false"
     inkscape:window-width="1680"
     inkscape:window-height="1026"
     inkscape:window-x="0"
     inkscape:window-y="24"
     inkscape:window-maximized="1" />
  <metadata
     id="metadata2989">
    <rdf:RDF>
      <cc:Work
         rdf:about="">
        <dc:format>image/svg+xml</dc:format>
        <dc:type
           rdf:resource="http://purl.org/dc/dcmitype/StillImage" />
        <dc:title></dc:title>
      </cc:Work>
    </rdf:RDF>
  </metadata>
  <g
     inkscape:label="Calque 1"
     inkscape:groupmode="layer"
     id="layer1"
     transform="translate(0,-952.36218)">
    <path
       sodipodi:type="arc"
       style="opacity:0.98999999;fill:#ffffff;fill-opacity:0;stroke:none"
       id="path2992"
       sodipodi:cx="49.750011"
       sodipodi:cy="49.744911"
       sodipodi:rx="49.750011"
       sodipodi:ry="49.750011"
       d="m 99.500023,49.744911 c 0,27.476173 -22.273839,49.750012 -49.750012,49.750012 C 22.273839,99.494923 0,77.221084 0,49.744911 0,22.268739 22.273839,-0.00510025 49.750011,-0.00510025 c 27.476173,0 49.750012,22.27383925 49.750012,49.75001125 z"
       transform="matrix(0.84845495,0,0,0.84845495,7.8423411,960.54295)" />
    <path
       style="fill:#000000;fill-opacity:1;stroke:none"
       d="m 83.443204,1006.9268 2.609533,1.4233 -3.321226,4.033 -2.609534,1.8979 -0.47446,5.6934 -1.780591,5.8191 -4.216293,1.7995 -0.05386,2.2101 -2.98583,2.904 -1.511322,2.3595 -3.973609,1.5386 -1.258411,-5.8573 0.122706,-5.0799 -0.474461,-4.5075 0.948921,-3.7957 -1.423381,-1.186 -2.846765,-1.4235 -3.795685,0.4745 -4.744608,-1.6607 -0.47446,-6.1679 0,-4.2702 4.270146,-4.98183 3.795686,-5.21907 6.642449,-2.60953 2.609534,3.08399 3.558457,0 4.04655,2.3907 0.223597,4.25174 4.981837,4.9819"
       id="path2996"
       inkscape:connector-curvature="0"
       sodipodi:nodetypes="ccccccccccccccccccccccccccccc" />
    <path
       style="fill:#000000;fill-opacity:1;stroke:none"
       d="m 16.987981,1016.7804 1.473465,-5.0097 3.536313,-7.8095 4.125699,-1.9155 1.178773,2.0629 3.831005,1.7681 0,2.6523 2.652237,0 2.06285,2.7996 1.473462,0.8841 3.38897,1.6208 3.831006,2.3575 1.620811,0.8841 -0.589386,2.0628 -0.884079,1.9156 -2.652235,2.2102 1.326117,3.9784 0,4.5676 -5.304469,2.7996 -2.357543,5.7465 -1.284231,1.597 -3.871156,-1.7556 -6.460695,-3.9554 0.270406,-2.3692 -0.884078,-5.8939 -3.388968,-3.8311 -1.031424,-3.5361 z"
       id="path3766"
       inkscape:connector-curvature="0"
       sodipodi:nodetypes="cccccccccccccccccccccccccccc" />
    <path
       style="fill:#000000;fill-opacity:1;stroke:none"
       d="m 18.86401,1008.6118 -0.58626,-1.1725 -0.351755,-2.8141 -0.938014,0.9381 -0.58626,-1.876 0.351756,-3.4003 -1.055267,0 -0.938014,1.5243 0,1.2898 -1.876028,-0.8208 -0.234504,-3.98661 0.820764,-2.46229 4.609601,-1.58463 1.758777,0 1.524273,1.05527 1.055267,0 -0.469007,-2.81405 2.227783,-1.52426 1.641525,-0.35176 3.165799,-3.4003 3.517554,-0.93802 2.227783,-1.99327 1.055266,-2.11054 0.938015,-1.99328 -1.758776,0 -0.820764,0.35175 0.70351,-0.938 2.550228,-1.14321 3.839996,-1.49496 0.175878,-1.93465 -2.323193,-3.19338 -2.520914,-1.81742 -1.084578,0.26382 -0.674198,1.87603 -1.641526,2.46229 -1.641525,0 -1.925815,-1.34546 c 0,0 -0.08292,-1.75876 0.386096,-1.75876 0.469007,0 3.415748,-1.70311 3.415748,-1.70311 l 1.407023,-2.11053 3.224423,-1.28977 -1.465648,-1.28977 -4.103813,1.17252 -3.634804,0.58626 -0.444009,-0.11381 -7.29461,4.68662 c 0,0 -5.685528,6.59116 -7.648387,10.42953 -2.937098,5.74348 -5.0181981,12.36245 -5.9528203,18.41445 -0.3170506,2.053 4.6900713,4.1038 4.6900713,4.1038 l 2.696792,2.5795 3.400301,1.9933 1.758778,0.3518 0.586258,-0.7036 z"
       id="path3806"
       inkscape:connector-curvature="0"
       sodipodi:nodetypes="cccccccccccccccccccccccccccccccccccccsccccccccsscccccc" />
    <path
       style="fill:#000000;fill-opacity:1;stroke:none"
       d="m 43.210581,969.41022 0.207272,1.76181 0.559641,1.7411 2.756741,-0.84982 1.181462,-2.79819 1.140005,-0.47674 2.653106,-1.20219 2.155647,-0.49744 0.497458,-3.31639 c 0,0 -0.497458,-1.49238 -1.160734,-1.49238 -0.663276,0 -3.813838,-0.74618 -3.813838,-0.74618 l -2.321467,-0.24873 -5.47203,1.6582 -1.82401,1.16073 0.165819,1.98983 2.570196,0.78763 1.513099,0.47673 0.06218,1.0571 z"
       id="path3826"
       inkscape:connector-curvature="0"
       sodipodi:nodetypes="cccccccccsccccccccc" />
    <path
       style="fill:#000000;fill-opacity:1;stroke:none"
       d="m 78.986949,995.33233 1.492876,1.84747 1.641526,2.52089 1.641525,1.23121 -0.175878,2.9312 2.520914,-0.7034 3.898623,-6.85931 -1.494963,-1.93466 -1.876027,-0.0586 -3.693432,-3.51753 -0.762137,-2.75543 5.100453,4.92457 c 0,0 0.789982,-1.03851 1.613676,-1.32326 0.823693,-0.28475 1.446593,-0.98825 1.346932,-1.25624 -2.29449,-6.16975 -5.276546,-11.63227 -9.380143,-16.41525 -2.657981,-3.09803 -9.585334,-7.62136 -9.585334,-7.62136 l -4.690072,2.11052 -2.638165,0.8794 0.527634,-0.99665 2.227783,-0.58626 -0.29313,-0.76213 -2.169157,0.52763 -2.814043,-0.29312 -3.98656,2.34503 -1.700152,1.99328 0.117251,0.99664 1.817404,-0.64489 1.407021,1.05527 0.938014,-2.2278 1.113892,-0.99664 0.351755,1.70015 -0.938013,0.35176 2.28641,-0.23449 -2.169159,0.93801 -0.29313,0.58625 -2.286409,0.99665 -2.110533,0.52763 -0.879388,-0.17588 -1.524274,-1.8174 -0.879388,0.11725 0.586259,1.93466 0.762136,1.52427 -0.11725,1.75878 -1.231145,1.99327 2.520913,5.45222 -1.99328,2.98992 -0.469007,2.40366 0.938014,2.34503 1.091908,-0.008 0.91603,1.35573 2.506257,-1.52428 1.172517,-5.21771 2.814044,-3.45893 2.69679,0.70352 -0.117251,1.8174 1.289769,-2.52092 1.28977,1.3484 0,0.41039 0,0.70349 2.462287,0.70352 1.231144,2.40368 3.341676,-0.52765 2.594986,2.01228 -2.62379,4.2067 0.945486,1.93724 2.610935,-1.95183"
       id="path3828"
       inkscape:connector-curvature="0"
       sodipodi:nodetypes="ccccccccccccssaccccccccccccccccccccccccccccccccccccccccccccccccccc" />
    <path
       sodipodi:type="arc"
       style="opacity:0.98999999000000005;fill:none;stroke:#000000;stroke-width:7.13060841;stroke-miterlimit:4;stroke-opacity:1;stroke-dasharray:none"
       id="path2992-7"
       sodipodi:cx="49.750011"
       sodipodi:cy="49.744911"
       sodipodi:rx="49.750011"
       sodipodi:ry="49.750011"
       d="m 99.500023,49.744911 c 0,27.476173 -22.273839,49.750012 -49.750012,49.750012 C 22.273839,99.494923 0,77.221084 0,49.744911 0,22.268739 22.273839,-0.00510025 49.750011,-0.00510025 c 27.476173,0 49.750012,22.27383925 49.750012,49.75001125 z"
       transform="matrix(0.84845495,0,0,0.84845495,7.8180588,960.51865)" />
  </g>
</svg>
