<?xml version="1.0" encoding="UTF-8" standalone="no"?>
<!-- Created with Inkscape (http://www.inkscape.org/) -->

<svg
   xmlns:dc="http://purl.org/dc/elements/1.1/"
   xmlns:cc="http://creativecommons.org/ns#"
   xmlns:rdf="http://www.w3.org/1999/02/22-rdf-syntax-ns#"
   xmlns:svg="http://www.w3.org/2000/svg"
   xmlns="http://www.w3.org/2000/svg"
   version="1.1"
   width="32"
   height="32"
   id="svg2985">
  <defs
     id="defs2987" />
  <metadata
     id="metadata2990">
    <rdf:RDF>
      <cc:Work
         rdf:about="">
        <dc:format>image/svg+xml</dc:format>
        <dc:type
           rdf:resource="http://purl.org/dc/dcmitype/StillImage" />
        <dc:title></dc:title>
      </cc:Work>
    </rdf:RDF>
  </metadata>
  <g
     id="layer1">
    <path
       d="M 12.68116,5.4585053 C 11.692752,4.8037829 10.363921,4.3419429 9.2296628,4.686994 7.0183756,5.3596868 5.0416759,7.4909553 4.4381715,9.7221191 3.6781391,12.531975 5.0354323,15.652559 6.4278586,18.208744 c 2.1326417,3.915057 9.7047984,9.664194 9.7047984,9.664194 0,0 7.369131,-5.830349 9.501771,-9.745405 1.392428,-2.556186 2.74972,-5.717376 1.989688,-8.5272315 C 27.02061,7.369139 25.043912,5.2784751 22.832624,4.6057823 22.54906,4.5195159 22.240556,4.4780914 21.939296,4.4839647 21.035511,4.5015714 20.122433,4.8862511 19.381126,5.3772936 17.808952,6.4186928 16.975414,8.2996471 16.031143,10.00636 15.08687,8.3808588 14.253336,6.4999046 12.68116,5.4585053 z"
       id="path3022-9"
       style="fill:#bd1c27;fill-opacity:1;stroke:#bd1c27;stroke-width:0.97194183;stroke-linecap:butt;stroke-linejoin:miter;stroke-miterlimit:4;stroke-opacity:1;stroke-dasharray:none" />
  </g>
</svg>
